<svg fill="none" xmlns="http://www.w3.org/2000/svg" viewBox="0 0 192 193">
  <path fill-rule="evenodd" clip-rule="evenodd" d="M.094 96.5C.094 43.265 43.032.11 96 .11s95.906 43.155 95.906 96.39S148.968 192.891 96 192.891.094 149.735.094 96.5zm49.28 62.047c12.96 9.849 29.11 15.687 46.626 15.687 42.751 0 77.344-34.773 77.344-77.734 0-22.196-9.233-42.203-24.052-56.36l7.609-9.017L137.794 15l-9.243 10.953c-9.892-4.613-20.92-7.187-32.551-7.187-42.751 0-77.344 34.774-77.344 77.734 0 16.248 4.948 31.324 13.413 43.791L23 151.038l19.106 16.123 7.269-8.614zm15.067-17.854c8.89 6.549 20.11 10.35 32.83 10.35 22.636 0 36.526-12.315 40.244-16.089a4.65 4.65 0 001.333-2.933 4.658 4.658 0 00-.888-3.099l-7.682-10.56a4.627 4.627 0 00-6.891-.675c-3.436 3.181-12.789 10.581-25.418 10.581-7.34 0-13.388-2.232-18.096-5.863L64.44 140.693zm-16.095-19.692c-3.494-7.434-5.403-15.898-5.403-24.981 0-30.764 23.31-54.181 54.049-54.181 6.166 0 11.621.853 16.345 2.144L95.885 64.664c-17.526.92-28.187 14.293-28.187 31.075 0 .75.022 1.5.067 2.25L48.346 121zm73.079-47.838l.268.21a4.626 4.626 0 006.767-1.135l7.021-10.926a4.666 4.666 0 00.093-4.916l-14.149 16.767z" fill="#C4C4C4"/>
</svg>
