<svg fill="none" xmlns="http://www.w3.org/2000/svg" viewBox="0 0 271 143">
  <path fill-rule="evenodd" clip-rule="evenodd" d="M271 143L135.578.961.1552 143H271zM127.429 62.5177a29.916 29.916 0 018.149-1.2579c6.115-.0178 12.082 1.8207 17.054 5.2551 4.973 3.4343 8.698 8.2905 10.65 13.8805 1.952 5.5901 2.03 11.6306.224 17.2661-1.806 5.6355-5.404 10.5805-10.286 14.1335-4.881 3.553-10.798 5.535-16.913 5.665-6.114.13-12.116-1.599-17.155-4.941-5.039-3.343-8.86-8.13-10.921-13.683-2.062-5.5533-2.259-11.5913-.565-17.2588 2.148 1.1778 4.573 1.8049 7.043 1.8214 1.919 0 3.818-.3644 5.59-1.0724 1.773-.708 3.383-1.7458 4.74-3.054 1.356-1.3082 2.432-2.8613 3.166-4.5706.734-1.7092 1.112-3.5412 1.112-5.3913-.017-2.3827-.667-4.7213-1.888-6.7926zm8.149-21.3841c32.066 0 60.071 18.0104 74.217 44.6298.597 1.1384.908 2.3962.908 3.6718 0 1.2756-.311 2.5334-.908 3.6718-14.138 26.609-42.151 44.632-74.217 44.632-32.067 0-60.0722-18.01-74.2183-44.6295-.5967-1.1384-.9076-2.3962-.9076-3.6718 0-1.2756.3109-2.5333.9076-3.6718 14.1382-26.6093 42.1513-44.6323 74.2183-44.6323zM73.5128 89.4364c12.7401 22.3906 36.3312 36.2276 62.0652 36.2276 25.735 0 49.327-13.837 62.064-36.2276-12.74-22.3903-36.329-36.2271-62.064-36.2271-25.736 0-49.3251 13.8368-62.0652 36.2271z" fill="#C4C4C4"/>
</svg>
